<?xml version="1.0" standalone="no"?><!DOCTYPE svg PUBLIC "-//W3C//DTD SVG 1.1//EN" "http://www.w3.org/Graphics/SVG/1.1/DTD/svg11.dtd"><svg t="1614673715914" class="icon" viewBox="0 0 1024 1024" version="1.1" xmlns="http://www.w3.org/2000/svg" p-id="1754" xmlns:xlink="http://www.w3.org/1999/xlink" width="200" height="200"><defs><style type="text/css"></style></defs><path d="M428 608c-6.4-127.8 120.5-194.9 253.1-215.7 4.2-0.7 8 2.6 8 6.8v387.4c0 8.1 4.9 15.4 12.3 18.5l180.7 75.3c13.2 5.5 27.7-4.2 27.7-18.5l0.2-482.4c0-3 1.9-5.6 4.7-6.5 11.9-3.9 28.3-5.4 48.6-3.9-10.6-5.4-34.5-9.4-47.1-10.6-3.5-0.3-6.3-3.3-6.3-6.9V93.3c0-12.3-11-21.7-23.2-19.7L706 103.1c-9.7 1.6-16.8 9.9-16.8 19.7v205.8c0 4.2-3.8 7.5-8 6.8C517.8 308.7 210.3 361.5 108 504-2 657.2 34.6 860.6 59.4 958c0.8 3.1 3.5 5.2 6.7 5.2 456.6 0 840.8 0.8 897.2 0C845.6 967.1 436 768 428 608z" p-id="1755"></path><path d="M603.4 124.3l-76.6 15.6c-9.3 1.9-16 10.1-16 19.6v96.8c0 10.3 7.9 19 18.2 19.9l76.6 7.1c11.7 1.1 21.8-8.1 21.8-19.9V143.9c0-12.7-11.6-22.1-24-19.6zM627.4 726.7v-244c0-14.7-15.2-24.3-28.5-18.1l-76.6 36c-7 3.3-11.5 10.3-11.5 18.1v151.8c0 6.4 3 12.4 8.2 16.1l76.6 56.2c13.2 9.7 31.8 0.3 31.8-16.1z" p-id="1756"></path></svg>