<?xml version="1.0" standalone="no"?><!DOCTYPE svg PUBLIC "-//W3C//DTD SVG 1.1//EN" "http://www.w3.org/Graphics/SVG/1.1/DTD/svg11.dtd"><svg t="1616047942134" class="icon" viewBox="0 0 1024 1024" version="1.1" xmlns="http://www.w3.org/2000/svg" p-id="4450" xmlns:xlink="http://www.w3.org/1999/xlink" width="200" height="200"><defs><style type="text/css"></style></defs><path d="M125.504 12.47872h466.65856a39.62112 39.62112 0 0 1 27.9744 10.91968l285.47072 278.0672a36.96128 36.96128 0 0 1 11.1744 26.97088v62.9504c0 21.28512-17.6 38.19264-39.1232 38.19264-21.83168 0-39.14752-16.90752-39.14752-38.19264v-39.77856H658.43328a88.11136 88.11136 0 0 1-63.2-26.16576l-1.10976-0.83072a84.93056 84.93056 0 0 1-25.16096-60.512V89.09056H125.504a26.78016 26.78016 0 0 0-18.432 7.37152 25.33376 25.33376 0 0 0-7.83872 18.51776v793.81888c0 7.09504 2.50368 13.63712 7.84512 17.9904a26.25664 26.25664 0 0 0 18.432 8.17664h686.16192c6.96704 0 13.7024-3.54816 18.99392-8.17664 4.20608-4.352 7.84512-10.89536 7.84512-17.9904v-22.06464a38.63424 38.63424 0 0 1 39.14752-38.44224c21.5232 0 39.1232 17.15968 39.1232 38.4448v22.06464a100.36736 100.36736 0 0 1-31.01952 72.4864l-0.8256 1.1072a107.33056 107.33056 0 0 1-73.26464 29.15712H125.504c-28.8 0-54.784-12.25216-74.3488-30.26688a101.41568 101.41568 0 0 1-31.04512-72.4864V114.97984c0-28.33024 12-53.94304 31.04512-72.76288C69.89184 23.67488 96.44672 12.47872 125.504 12.47872z m638.63296 383.58912l0.54144 0.52864 232.08192 226.26048a22.30784 22.30784 0 0 1 0 32.68352L764.13696 882.08384a23.50592 23.50592 0 0 1-32.98048 0 21.04704 21.04704 0 0 1-7.27808-16.1024v-110.65728h-166.912c-13.16096 0-24.0512-10.08896-24.0512-23.168V546.2208c0-12.8 10.89024-22.87104 24.0512-22.87104h166.912V412.672a23.36384 23.36384 0 0 1 23.48416-23.168 27.04768 27.04768 0 0 1 16.7744 6.56768z m182.57536 242.8672L771.41376 468.02304v78.19776c0 12.83072-10.91584 23.44832-24.0512 23.44832H580.7296V708.9792h166.63296c13.13536 0 24.0512 10.6176 24.0512 23.168v78.49856l175.29856-171.71072z m-148.48-333.64608L615.9296 128.08832v136.01152a38.24896 38.24896 0 0 0 11.74272 28.07808l1.10976 1.08288a40.64768 40.64768 0 0 0 29.6512 12.032h139.79904z" p-id="4451" fill="#FFFFFF"></path></svg>